<svg xmlns="http://www.w3.org/2000/svg" width="200" height="200" viewBox="0 0 200 200">
  <defs>
    <linearGradient id="grad" x1="0%" y1="0%" x2="100%" y2="100%">
      <stop offset="0%" style="stop-color:#a78bfa;stop-opacity:1" />
      <stop offset="100%" style="stop-color:#7c3aed;stop-opacity:1" />
    </linearGradient>
  </defs>
  <!-- Stylized T mark -->
  <path d="M100 30 C85 30 72 38 72 52 C72 62 80 68 80 68 C72 72 62 80 62 95 C62 118 80 130 80 130 L80 155 C80 160 84 165 90 165 L110 165 C116 165 120 160 120 155 L120 130 C120 130 138 118 138 95 C138 80 128 72 120 68 C120 68 128 62 128 52 C128 38 115 30 100 30 Z" fill="none" stroke="url(#grad)" stroke-width="6" stroke-linecap="round" stroke-linejoin="round"/>
  <!-- Cross bar of T -->
  <path d="M55 55 C55 55 70 45 100 45 C130 45 145 55 145 55" fill="none" stroke="url(#grad)" stroke-width="6" stroke-linecap="round"/>
  <!-- Inner loop detail -->
  <path d="M85 68 C85 68 95 62 100 62 C105 62 115 68 115 68" fill="none" stroke="url(#grad)" stroke-width="4" stroke-linecap="round"/>
</svg>
